<svg width="16" height="16" viewBox="0 0 16 16" fill="none" xmlns="http://www.w3.org/2000/svg">
<path d="M13.7778 3.55554H9.77783V14.6667H14.6667V4.44443C14.6667 4.20868 14.5731 3.98259 14.4064 3.81589C14.2397 3.64919 14.0136 3.55554 13.7778 3.55554V3.55554ZM11.5556 11.1111H10.6667V10.2222H11.5556V11.1111ZM11.5556 8.88888H10.6667V7.99999H11.5556V8.88888ZM11.5556 6.66665H10.6667V5.77776H11.5556V6.66665ZM13.3334 11.1111H12.4445V10.2222H13.3334V11.1111ZM13.3334 8.88888H12.4445V7.99999H13.3334V8.88888ZM13.3334 6.66665H12.4445V5.77776H13.3334V6.66665Z" fill="white"/>
<path d="M7.94672 1.33337H2.72005C2.47016 1.33337 2.2305 1.43264 2.0538 1.60934C1.8771 1.78605 1.77783 2.0257 1.77783 2.2756V14.6667H4.00005V13.3334H6.66672V14.6667H8.88894V2.2756C8.88894 2.0257 8.78967 1.78605 8.61297 1.60934C8.43627 1.43264 8.19661 1.33337 7.94672 1.33337V1.33337ZM4.00005 11.1112H3.11117V10.2223H4.00005V11.1112ZM4.00005 8.88893H3.11117V8.00004H4.00005V8.88893ZM4.00005 6.66671H3.11117V5.77782H4.00005V6.66671ZM4.00005 4.44449H3.11117V3.5556H4.00005V4.44449ZM5.77783 11.1112H4.88894V10.2223H5.77783V11.1112ZM5.77783 8.88893H4.88894V8.00004H5.77783V8.88893ZM5.77783 6.66671H4.88894V5.77782H5.77783V6.66671ZM5.77783 4.44449H4.88894V3.5556H5.77783V4.44449ZM7.55561 11.1112H6.66672V10.2223H7.55561V11.1112ZM7.55561 8.88893H6.66672V8.00004H7.55561V8.88893ZM7.55561 6.66671H6.66672V5.77782H7.55561V6.66671ZM7.55561 4.44449H6.66672V3.5556H7.55561V4.44449Z" fill="white"/>
</svg>
