<svg width="24" height="24" viewBox="0 0 24 24" fill="none" xmlns="http://www.w3.org/2000/svg">
<path d="M7.07254 9.813L5.01454 11.871C4.17056 12.715 3.69641 13.8597 3.69641 15.0532C3.69641 16.2468 4.17056 17.3915 5.01454 18.2355C5.85853 19.0795 7.00322 19.5536 8.19679 19.5536C9.39037 19.5536 10.5351 19.0795 11.379 18.2355L14.121 15.492C14.63 14.983 15.0094 14.3593 15.2274 13.6733C15.4455 12.9873 15.4958 12.259 15.3741 11.5496C15.2524 10.8402 14.9623 10.1702 14.5282 9.59611C14.094 9.02197 13.5285 8.56035 12.879 8.25L12 9.129C11.9108 9.2184 11.8332 9.31869 11.769 9.4275C12.2708 9.57175 12.7263 9.84447 13.0904 10.2187C13.4545 10.5929 13.7146 11.0557 13.845 11.5612C13.9755 12.0668 13.9717 12.5976 13.8341 13.1013C13.6966 13.6049 13.4299 14.064 13.0605 14.433L10.32 17.175C9.75712 17.7379 8.99363 18.0542 8.19754 18.0542C7.40145 18.0542 6.63796 17.7379 6.07504 17.175C5.51212 16.6121 5.19587 15.8486 5.19587 15.0525C5.19587 14.2564 5.51212 13.4929 6.07504 12.93L7.26454 11.742C7.09671 11.1131 7.03188 10.4611 7.07254 9.8115V9.813Z" fill="white"/>
<path d="M9.87907 7.00789C9.37013 7.5169 8.99072 8.14058 8.77269 8.82656C8.55465 9.51255 8.50436 10.2408 8.62603 10.9503C8.7477 11.6597 9.03778 12.3296 9.47193 12.9038C9.90607 13.4779 10.4716 13.9395 11.1211 14.2499L12.2836 13.0859C11.775 12.9495 11.3113 12.6816 10.939 12.3092C10.5668 11.9368 10.2991 11.473 10.1629 10.9643C10.0267 10.4557 10.0268 9.92016 10.1631 9.41156C10.2994 8.90296 10.5672 8.4392 10.9396 8.06689L13.6801 5.32489C14.243 4.76196 15.0065 4.44572 15.8026 4.44572C16.5987 4.44572 17.3621 4.76196 17.9251 5.32489C18.488 5.88781 18.8042 6.65129 18.8042 7.44739C18.8042 8.24348 18.488 9.00696 17.9251 9.56989L16.7356 10.7579C16.9036 11.3879 16.9681 12.0404 16.9276 12.6884L18.9856 10.6304C19.8296 9.7864 20.3037 8.64171 20.3037 7.44814C20.3037 6.25456 19.8296 5.10987 18.9856 4.26589C18.1416 3.4219 16.9969 2.94775 15.8033 2.94775C14.6097 2.94775 13.4651 3.4219 12.6211 4.26589L9.87907 7.00789Z" fill="white"/>
</svg>
